<svg width="720" height="159" viewBox="0 0 720 159" fill="none" xmlns="http://www.w3.org/2000/svg">
<g filter="url(#filter0_d_1_114)">
<path d="M104.391 97.0065L111.891 66.5044H93.3911L97.8911 47.5031" stroke="black"/>
<path d="M72.3911 61.5041L87.8911 43.0028" stroke="black"/>
<path d="M68.3911 65.0043C68.3911 47.8032 54.3911 69.838 47.3911 83.0055L76.8911 108.507L109.891 87.0058H89.8911L109.891 59.5039H84.3911L81.3911 42.0028L68.3911 65.0043ZM68.3911 65.0043H66.8911" stroke="black"/>
<rect x="45.3911" y="40.5026" width="68" height="69.0047" rx="34" fill="white" stroke="black"/>
<rect x="64.8911" y="60.004" width="30" height="30.002" rx="15" fill="url(#paint0_linear_1_114)"/>
<path d="M4.39114 75.005L79.6 1.58571" stroke="url(#paint1_linear_1_114)"/>
<path d="M16.8911 75.505L85.8911 8.00047" stroke="url(#paint2_linear_1_114)"/>
<path d="M79.3911 1L153.894 76.5025" stroke="url(#paint3_linear_1_114)"/>
<path d="M79.8079 14.2305L147.391 81.5054" stroke="url(#paint4_linear_1_114)"/>
<path d="M141.242 75.3614L78.8912 136.009" stroke="url(#paint5_linear_1_114)"/>
<path d="M153.242 76.361L78.8912 150.01" stroke="url(#paint6_linear_1_114)"/>
<path d="M78.8911 136.009V150.01" stroke="white"/>
<path d="M5.39111 75.505H17.3911" stroke="white"/>
<path d="M4 74.8535V74.8535C8.95588 69.9964 16.9106 70.0767 21.7675 75.0329L78.7986 133.231C83.6554 138.188 83.5751 146.143 78.6192 151V151L4 74.8535Z" fill="url(#paint7_linear_1_114)"/>
<path d="M245.438 66C244.969 62.0417 243.068 58.9688 239.734 56.7812C236.401 54.5937 232.313 53.5 227.469 53.5C223.927 53.5 220.828 54.0729 218.172 55.2187C215.542 56.3646 213.484 57.9401 212 59.9453C210.542 61.9505 209.813 64.2292 209.813 66.7812C209.813 68.9167 210.32 70.7526 211.336 72.2891C212.378 73.7995 213.706 75.0625 215.32 76.0781C216.935 77.0677 218.628 77.888 220.398 78.5391C222.169 79.1641 223.797 79.6719 225.281 80.0625L233.406 82.25C235.49 82.7969 237.807 83.5521 240.359 84.5156C242.938 85.4792 245.398 86.7943 247.742 88.4609C250.112 90.1016 252.065 92.2109 253.602 94.7891C255.138 97.3672 255.906 100.531 255.906 104.281C255.906 108.604 254.773 112.51 252.508 116C250.268 119.49 246.987 122.263 242.664 124.32C238.367 126.378 233.146 127.406 227 127.406C221.271 127.406 216.31 126.482 212.117 124.633C207.951 122.784 204.669 120.206 202.273 116.898C199.904 113.591 198.563 109.75 198.25 105.375H208.25C208.51 108.396 209.526 110.896 211.297 112.875C213.094 114.828 215.359 116.286 218.094 117.25C220.854 118.187 223.823 118.656 227 118.656C230.698 118.656 234.018 118.057 236.961 116.859C239.904 115.635 242.234 113.943 243.953 111.781C245.672 109.594 246.531 107.042 246.531 104.125C246.531 101.469 245.789 99.3073 244.305 97.6406C242.82 95.974 240.867 94.6198 238.445 93.5781C236.023 92.5365 233.406 91.625 230.594 90.8437L220.75 88.0312C214.5 86.2344 209.552 83.6693 205.906 80.3359C202.26 77.0026 200.438 72.6406 200.438 67.25C200.438 62.7708 201.648 58.8646 204.07 55.5312C206.518 52.1719 209.799 49.5677 213.914 47.7187C218.055 45.8437 222.677 44.9062 227.781 44.9062C232.938 44.9062 237.521 45.8307 241.531 47.6797C245.542 49.5026 248.719 52.0026 251.062 55.1797C253.432 58.3568 254.682 61.9635 254.813 66H245.438ZM308.396 101.469V66H317.615V126H308.396V115.844H307.771C306.365 118.891 304.178 121.482 301.209 123.617C298.24 125.727 294.49 126.781 289.959 126.781C286.209 126.781 282.876 125.961 279.959 124.32C277.042 122.654 274.751 120.154 273.084 116.82C271.417 113.461 270.584 109.229 270.584 104.125V66H279.803V103.5C279.803 107.875 281.027 111.365 283.475 113.969C285.949 116.573 289.1 117.875 292.928 117.875C295.219 117.875 297.55 117.289 299.92 116.117C302.316 114.945 304.321 113.148 305.936 110.727C307.576 108.305 308.396 105.219 308.396 101.469ZM334.5 126V66H343.406V75.375H344.188C345.438 72.1719 347.456 69.6849 350.242 67.9141C353.029 66.1172 356.375 65.2188 360.281 65.2188C364.24 65.2188 367.534 66.1172 370.164 67.9141C372.82 69.6849 374.891 72.1719 376.375 75.375H377C378.536 72.276 380.841 69.8151 383.914 67.9922C386.987 66.1432 390.672 65.2188 394.969 65.2188C400.333 65.2188 404.721 66.8984 408.133 70.2578C411.544 73.5911 413.25 78.7865 413.25 85.8437V126H404.031V85.8437C404.031 81.4167 402.82 78.2526 400.398 76.3516C397.977 74.4505 395.125 73.5 391.844 73.5C387.625 73.5 384.357 74.776 382.039 77.3281C379.721 79.8542 378.563 83.0573 378.563 86.9375V126H369.188V84.9062C369.188 81.4948 368.081 78.7474 365.867 76.6641C363.654 74.5547 360.802 73.5 357.312 73.5C354.917 73.5 352.677 74.138 350.594 75.4141C348.536 76.6901 346.87 78.4609 345.594 80.7266C344.344 82.9661 343.719 85.5573 343.719 88.5V126H334.5ZM428.387 126V118.969L462.449 75.2187V74.5937H429.48V66H474.324V73.3437L441.199 116.781V117.406H475.418V126H428.387ZM523.992 87.4062V96H488.992V87.4062H523.992ZM544.744 126H534.588L563.963 46H573.963L603.338 126H593.182L569.275 58.6562H568.65L544.744 126ZM548.494 94.75H589.432V103.344H548.494V94.75ZM625.486 46V126H615.799V46H625.486Z" fill="url(#paint8_linear_1_114)"/>
</g>
<defs>
<filter id="filter0_d_1_114" x="0" y="0.648811" width="724" height="158.351" filterUnits="userSpaceOnUse" color-interpolation-filters="sRGB">
<feFlood flood-opacity="0" result="BackgroundImageFix"/>
<feColorMatrix in="SourceAlpha" type="matrix" values="0 0 0 0 0 0 0 0 0 0 0 0 0 0 0 0 0 0 127 0" result="hardAlpha"/>
<feOffset dy="4"/>
<feGaussianBlur stdDeviation="2"/>
<feComposite in2="hardAlpha" operator="out"/>
<feColorMatrix type="matrix" values="0 0 0 0 0 0 0 0 0 0 0 0 0 0 0 0 0 0 0.25 0"/>
<feBlend mode="normal" in2="BackgroundImageFix" result="effect1_dropShadow_1_114"/>
<feBlend mode="normal" in="SourceGraphic" in2="effect1_dropShadow_1_114" result="shape"/>
</filter>
<linearGradient id="paint0_linear_1_114" x1="79.8911" y1="60.004" x2="79.8911" y2="90.006" gradientUnits="userSpaceOnUse">
<stop stop-color="#063368"/>
<stop offset="0.652939" stop-color="#531A8B" stop-opacity="0.883531"/>
<stop offset="1" stop-opacity="0"/>
</linearGradient>
<linearGradient id="paint1_linear_1_114" x1="41.9428" y1="38.2412" x2="42.0483" y2="38.3495" gradientUnits="userSpaceOnUse">
<stop stop-color="#4D89B5"/>
<stop offset="1" stop-color="#0A304C" stop-opacity="0"/>
</linearGradient>
<linearGradient id="paint2_linear_1_114" x1="51.3062" y1="41.6654" x2="51.4761" y2="41.84" gradientUnits="userSpaceOnUse">
<stop stop-color="#4D89B5"/>
<stop offset="1" stop-color="#0A304C" stop-opacity="0"/>
</linearGradient>
<linearGradient id="paint3_linear_1_114" x1="116.892" y1="38.5013" x2="116.392" y2="39.0013" gradientUnits="userSpaceOnUse">
<stop stop-color="#4D89B5"/>
<stop offset="1" stop-color="#0A304C" stop-opacity="0"/>
</linearGradient>
<linearGradient id="paint4_linear_1_114" x1="113.678" y1="47.7898" x2="113.521" y2="47.9462" gradientUnits="userSpaceOnUse">
<stop stop-color="#4D89B5"/>
<stop offset="1" stop-color="#0A304C" stop-opacity="0"/>
</linearGradient>
<linearGradient id="paint5_linear_1_114" x1="110.242" y1="105.863" x2="109.891" y2="105.507" gradientUnits="userSpaceOnUse">
<stop stop-color="#4D89B5"/>
<stop offset="1" stop-color="#0A304C" stop-opacity="0"/>
</linearGradient>
<linearGradient id="paint6_linear_1_114" x1="116.141" y1="113.261" x2="115.992" y2="113.11" gradientUnits="userSpaceOnUse">
<stop stop-color="#4D89B5"/>
<stop offset="1" stop-color="#0A304C" stop-opacity="0"/>
</linearGradient>
<linearGradient id="paint7_linear_1_114" x1="8.48671" y1="70.4562" x2="83.1111" y2="146.598" gradientUnits="userSpaceOnUse">
<stop stop-color="#18AF39"/>
<stop offset="1" stop-color="#339248" stop-opacity="0"/>
</linearGradient>
<linearGradient id="paint8_linear_1_114" x1="423" y1="19" x2="423" y2="132" gradientUnits="userSpaceOnUse">
<stop offset="0.215429" stop-color="#55CCC5"/>
<stop offset="1" stop-color="#195E86" stop-opacity="0"/>
</linearGradient>
</defs>
</svg>
